<svg width="84" height="25" viewBox="0 0 84 25" fill="none" xmlns="http://www.w3.org/2000/svg">
    <path
        d="M2.312 25.396C1.376 25.396 0.908 25.06 0.908 24.388C0.908 24.196 0.944 23.944 1.016 23.632C1.52 21.112 1.88 18.556 2.096 15.964C1.736 16.06 1.448 16.108 1.232 16.108C0.992 16.108 0.872 15.892 0.872 15.46C0.872 14.884 1.016 14.236 1.304 13.516C1.592 12.796 1.928 12.268 2.312 11.932C2.312 10.66 2.276 9.604 2.204 8.764C2.156 7.9 2.048 7.144 1.88 6.496C1.712 5.848 1.448 5.224 1.088 4.624C0.872 4.288 0.764 4.036 0.764 3.868C0.764 3.556 0.92 3.256 1.232 2.968C1.568 2.656 1.964 2.392 2.42 2.176C2.9 1.96 3.344 1.852 3.752 1.852C4.52 1.852 5.024 2.2 5.264 2.896C5.528 3.568 5.66 4.456 5.66 5.56C5.636 6.088 5.588 6.844 5.516 7.828C5.444 8.812 5.336 10.024 5.192 11.464C6.704 11.368 8.18 11.296 9.62 11.248C11.06 11.2 12.44 11.176 13.76 11.176H16.424V10.168C16.424 8.08 16.148 6.244 15.596 4.66C15.428 4.252 15.344 3.964 15.344 3.796C15.344 3.316 15.644 2.872 16.244 2.464C16.868 2.056 17.516 1.852 18.188 1.852C18.932 1.852 19.424 2.128 19.664 2.68C19.928 3.208 20.06 3.964 20.06 4.948C20.06 5.596 20 6.472 19.88 7.576C19.76 8.68 19.592 10.024 19.376 11.608C19.16 13.288 18.992 14.68 18.872 15.784C18.752 16.864 18.692 17.824 18.692 18.664C18.692 20.248 19.1 21.424 19.916 22.192C20.228 22.552 20.384 22.912 20.384 23.272C20.384 23.824 20.06 24.316 19.412 24.748C18.764 25.156 17.984 25.36 17.072 25.36C16.496 25.36 16.04 25.204 15.704 24.892C15.368 24.58 15.2 23.908 15.2 22.876C15.2 22.516 15.236 21.976 15.308 21.256C15.38 20.536 15.5 19.624 15.668 18.52C15.764 17.824 15.848 17.152 15.92 16.504C16.016 15.856 16.088 15.244 16.136 14.668C15.968 14.884 15.8 15.052 15.632 15.172C15.488 15.292 15.284 15.34 15.02 15.316C14.156 15.268 13.292 15.232 12.428 15.208C11.588 15.16 10.748 15.136 9.908 15.136C8.156 15.136 6.488 15.244 4.904 15.46C4.88 15.628 4.856 15.916 4.832 16.324C4.832 16.708 4.832 17.032 4.832 17.296C4.832 18.328 4.88 19.396 4.976 20.5C5.072 21.604 5.168 22.588 5.264 23.452C5.336 24.052 5.048 24.532 4.4 24.892C3.752 25.228 3.056 25.396 2.312 25.396ZM27.7539 25.468C26.3139 25.468 25.1499 25.024 24.2619 24.136C23.3979 23.224 22.9659 21.928 22.9659 20.248C22.9659 19.048 23.1939 17.86 23.6499 16.684C24.1299 15.484 24.8139 14.404 25.7019 13.444C26.5899 12.484 27.6579 11.716 28.9059 11.14C30.1539 10.564 31.5579 10.276 33.1179 10.276C34.5579 10.276 35.7819 10.528 36.7899 11.032C37.8219 11.512 38.3379 12.172 38.3379 13.012C38.3379 13.228 38.3139 13.516 38.2659 13.876C38.2179 14.212 38.1579 14.488 38.0859 14.704C38.0139 14.896 37.9059 15.076 37.7619 15.244C37.6419 15.388 37.4739 15.46 37.2579 15.46C37.1619 15.46 36.9819 15.424 36.7179 15.352C36.6219 15.856 36.5499 16.348 36.5019 16.828C36.4539 17.308 36.4299 17.788 36.4299 18.268C36.4299 19.18 36.5619 19.996 36.8259 20.716C37.1139 21.412 37.6659 21.844 38.4819 22.012C38.6979 22.06 38.8659 22.132 38.9859 22.228C39.1299 22.324 39.2019 22.528 39.2019 22.84C39.2019 23.104 39.1299 23.44 38.9859 23.848C38.8659 24.256 38.6139 24.628 38.2299 24.964C37.8699 25.276 37.3419 25.432 36.6459 25.432C35.7099 25.432 34.9899 25.096 34.4859 24.424C33.9819 23.728 33.7299 22.744 33.7299 21.472C33.0819 22.648 32.2539 23.608 31.2459 24.352C30.2619 25.096 29.0979 25.468 27.7539 25.468ZM28.9059 21.724C29.8659 21.724 30.7059 21.424 31.4259 20.824C32.1699 20.224 32.7459 19.468 33.1539 18.556C33.4179 17.98 33.6219 17.356 33.7659 16.684C33.9099 15.988 34.0059 15.304 34.0539 14.632C33.6459 14.44 33.1779 14.284 32.6499 14.164C32.1219 14.044 31.5699 13.984 30.9939 13.984C29.5299 13.984 28.3179 14.416 27.3579 15.28C26.4219 16.144 25.9539 17.224 25.9539 18.52C25.9539 19.48 26.2179 20.26 26.7459 20.86C27.2739 21.436 27.9939 21.724 28.9059 21.724ZM43.5905 25.396C43.2065 25.396 42.8945 25.324 42.6545 25.18C42.4385 25.06 42.3665 24.844 42.4385 24.532C42.7025 23.5 42.9185 22.456 43.0865 21.4C43.2785 20.32 43.3745 19.288 43.3745 18.304C43.3745 17.032 43.2905 16.108 43.1225 15.532C42.9785 14.932 42.7745 14.524 42.5105 14.308C42.2465 14.068 41.9225 13.888 41.5385 13.768C41.3705 13.696 41.2145 13.6 41.0705 13.48C40.9505 13.36 40.8905 13.192 40.8905 12.976C40.8905 12.64 41.0225 12.268 41.2865 11.86C41.5505 11.452 41.9225 11.104 42.4025 10.816C42.8825 10.504 43.4345 10.348 44.0585 10.348C44.8745 10.348 45.4385 10.636 45.7505 11.212C46.0865 11.764 46.2545 12.496 46.2545 13.408C46.6865 12.448 47.2145 11.692 47.8385 11.14C48.4865 10.564 49.2905 10.276 50.2505 10.276C50.8985 10.276 51.4385 10.42 51.8705 10.708C52.3025 10.996 52.5185 11.464 52.5185 12.112C52.5185 12.76 52.3025 13.372 51.8705 13.948C51.4625 14.5 51.0425 14.776 50.6105 14.776C50.5385 14.776 50.4545 14.764 50.3585 14.74C50.2625 14.716 50.1785 14.656 50.1065 14.56C49.7945 14.176 49.4105 13.984 48.9545 13.984C48.2585 13.984 47.6465 14.44 47.1185 15.352C46.5905 16.264 46.3025 17.524 46.2545 19.132C46.2785 19.732 46.2905 20.344 46.2905 20.968C46.3145 21.592 46.3265 22.048 46.3265 22.336C46.3265 23.224 46.0745 23.956 45.5705 24.532C45.0905 25.108 44.4305 25.396 43.5905 25.396Z"
        fill="#121D34" />
    <path
        d="M58.0653 25.468C57.1773 25.468 56.3493 25.336 55.5813 25.072C54.8133 24.808 54.1893 24.436 53.7093 23.956C53.2293 23.476 52.9893 22.9 52.9893 22.228C52.9893 21.868 53.0733 21.532 53.2413 21.22C53.4333 20.884 53.7333 20.716 54.1413 20.716C54.3573 20.716 54.5853 20.776 54.8253 20.896C55.2573 21.136 55.8093 21.364 56.4813 21.58C57.1533 21.772 57.8613 21.868 58.6053 21.868C59.4453 21.868 60.1893 21.748 60.8373 21.508C61.4853 21.268 61.8093 20.932 61.8093 20.5C61.8093 20.164 61.5573 19.924 61.0533 19.78C60.5733 19.636 59.7573 19.48 58.6053 19.312C57.8133 19.168 57.0453 19 56.3013 18.808C55.5573 18.616 54.9453 18.292 54.4653 17.836C53.9853 17.356 53.7453 16.66 53.7453 15.748C53.7453 14.86 53.9853 14.008 54.4653 13.192C54.9693 12.352 55.7133 11.656 56.6973 11.104C57.6813 10.552 58.8813 10.276 60.2973 10.276C61.0413 10.276 61.7613 10.36 62.4573 10.528C63.1533 10.696 63.7293 10.948 64.1853 11.284C64.6413 11.62 64.8693 12.04 64.8693 12.544C64.8693 12.976 64.7133 13.372 64.4013 13.732C64.1133 14.092 63.7653 14.392 63.3573 14.632C62.9733 14.848 62.6493 14.956 62.3853 14.956C62.1933 14.956 61.9653 14.824 61.7013 14.56C61.2933 14.224 60.8373 13.996 60.3333 13.876C59.8533 13.732 59.3733 13.66 58.8933 13.66C58.1733 13.66 57.5853 13.768 57.1293 13.984C56.6973 14.2 56.4813 14.476 56.4813 14.812C56.4813 15.124 56.6613 15.376 57.0213 15.568C57.4053 15.76 57.8733 15.904 58.4253 16C58.9773 16.072 59.5053 16.144 60.0093 16.216C61.4013 16.408 62.5053 16.744 63.3213 17.224C64.1373 17.68 64.5453 18.496 64.5453 19.672C64.5453 20.584 64.2813 21.496 63.7533 22.408C63.2493 23.296 62.5053 24.028 61.5213 24.604C60.5613 25.18 59.4093 25.468 58.0653 25.468ZM69.1331 25.396C68.7971 25.396 68.5091 25.312 68.2691 25.144C68.0291 25 67.9331 24.796 67.9811 24.532C68.3411 22.612 68.6411 20.668 68.8811 18.7C69.1451 16.708 69.2771 14.704 69.2771 12.688C69.2771 10.912 69.2171 9.304 69.0971 7.864C68.9771 6.424 68.5931 5.044 67.9451 3.724C67.8251 3.46 67.7291 3.232 67.6571 3.04C67.5851 2.848 67.5491 2.668 67.5491 2.5C67.5491 2.044 67.8131 1.6 68.3411 1.168C68.8931 0.735999 69.4691 0.52 70.0691 0.52C70.9091 0.52 71.4851 1.048 71.7971 2.104C72.1091 3.16 72.2651 4.72 72.2651 6.784C72.2651 9.256 72.1211 11.416 71.8331 13.264C71.5451 15.088 71.2931 16.48 71.0771 17.44L71.2211 17.512C71.7011 16.24 72.2771 15.052 72.9491 13.948C73.6451 12.844 74.4491 11.956 75.3611 11.284C76.2731 10.612 77.3291 10.276 78.5291 10.276C79.8011 10.276 80.7611 10.66 81.4091 11.428C82.0811 12.196 82.4171 13.144 82.4171 14.272C82.4171 14.752 82.3691 15.22 82.2731 15.676C82.1771 16.108 82.0691 16.528 81.9491 16.936C81.8291 17.32 81.7211 17.716 81.6251 18.124C81.5291 18.508 81.4811 18.904 81.4811 19.312C81.4811 20.056 81.6611 20.668 82.0211 21.148C82.3811 21.604 82.8611 21.928 83.4611 22.12C83.6291 22.168 83.7491 22.24 83.8211 22.336C83.9171 22.408 83.9651 22.552 83.9651 22.768C83.9651 22.984 83.8931 23.296 83.7491 23.704C83.6051 24.112 83.3411 24.496 82.9571 24.856C82.5731 25.192 82.0091 25.36 81.2651 25.36C80.3051 25.36 79.5611 25.024 79.0331 24.352C78.5051 23.656 78.2411 22.768 78.2411 21.688C78.2411 21.16 78.2891 20.62 78.3851 20.068C78.5051 19.516 78.6371 18.988 78.7811 18.484C78.9011 17.98 79.0091 17.512 79.1051 17.08C79.2011 16.624 79.2491 16.24 79.2491 15.928C79.2491 14.824 78.6731 14.272 77.5211 14.272C76.5611 14.272 75.7091 14.62 74.9651 15.316C74.2451 15.988 73.6211 16.852 73.0931 17.908C72.5891 18.94 72.1691 20.008 71.8331 21.112V22.336C71.8331 23.224 71.5691 23.956 71.0411 24.532C70.5371 25.108 69.9011 25.396 69.1331 25.396Z"
        fill="#00A78E" />
</svg>
