<svg width="111" height="109" viewBox="0 0 111 109" fill="none" xmlns="http://www.w3.org/2000/svg">
<path d="M44.3333 100.001C53.5333 100.001 61 92.5339 61 83.3339V66.6672H44.3333C35.1333 66.6672 27.6666 74.1339 27.6666 83.3339C27.6666 92.5339 35.1333 100.001 44.3333 100.001Z" fill="#0ACF83"/>
<path d="M27.6666 50.0004C27.6666 40.8004 35.1333 33.3337 44.3333 33.3337H61V66.667H44.3333C35.1333 66.667 27.6666 59.2004 27.6666 50.0004Z" fill="#A259FF"/>
<path d="M27.6666 16.6671C27.6666 7.46715 35.1333 0.000488281 44.3333 0.000488281H61V33.3338H44.3333C35.1333 33.3338 27.6666 25.8671 27.6666 16.6671Z" fill="#F24E1E"/>
<path d="M61 0.000488281H77.6667C86.8667 0.000488281 94.3334 7.46715 94.3334 16.6671C94.3334 25.8671 86.8667 33.3338 77.6667 33.3338H61V0.000488281Z" fill="#FF7262"/>
<path d="M94.3334 50.0004C94.3334 59.2004 86.8667 66.667 77.6667 66.667C68.4667 66.667 61 59.2004 61 50.0004C61 40.8004 68.4667 33.3337 77.6667 33.3337C86.8667 33.3337 94.3334 40.8004 94.3334 50.0004Z" fill="#1ABCFE"/>
</svg>
